<svg xmlns="http://www.w3.org/2000/svg" viewBox="0 0 100 100">
<defs>
<radialGradient id="base" cx="36%" cy="30%" r="85%">
<stop offset="0%" stop-color="#FFFFFF"/><stop offset="55%" stop-color="#F4F3EC"/><stop offset="100%" stop-color="#CFCEC2"/>
</radialGradient>
<radialGradient id="shade" cx="36%" cy="30%" r="78%">
<stop offset="0%" stop-color="#FFFFFF" stop-opacity="0.45"/><stop offset="38%" stop-color="#FFFFFF" stop-opacity="0"/><stop offset="68%" stop-color="#000000" stop-opacity="0"/><stop offset="100%" stop-color="#000000" stop-opacity="0.30"/>
</radialGradient>
<linearGradient id="red" x1="0" y1="0" x2="1" y2="1">
<stop offset="0%" stop-color="#E0334B"/><stop offset="100%" stop-color="#B30D20"/>
</linearGradient>
<linearGradient id="gold" x1="0" y1="0" x2="1" y2="1">
<stop offset="0%" stop-color="#E0AC28"/><stop offset="100%" stop-color="#A87708"/>
</linearGradient>
<linearGradient id="green" x1="0" y1="0" x2="1" y2="1">
<stop offset="0%" stop-color="#1A7D58"/><stop offset="100%" stop-color="#00492F"/>
</linearGradient>
<linearGradient id="blue" x1="0" y1="0" x2="1" y2="1">
<stop offset="0%" stop-color="#1E4E85"/><stop offset="100%" stop-color="#072348"/>
</linearGradient>
<clipPath id="ball"><circle cx="50" cy="50" r="47"/></clipPath>
</defs>
<circle cx="50" cy="50" r="47" fill="url(#base)"/>
<g clip-path="url(#ball)">
<polygon points="50.00,17.70 63.79,11.69 58.52,1.96 41.48,1.96 36.21,11.69" fill="url(#gold)"/><polygon points="19.28,40.02 17.82,25.05 6.95,27.05 1.68,43.26 9.30,51.28" fill="url(#green)"/><polygon points="31.01,76.13 16.32,72.89 14.87,83.85 28.66,93.87 38.64,89.10" fill="url(#green)"/><polygon points="68.99,76.13 61.36,89.10 71.34,93.87 85.13,83.85 83.68,72.89" fill="url(#blue)"/><polygon points="80.72,40.02 90.70,51.28 98.32,43.26 93.05,27.05 82.18,25.05" fill="url(#blue)"/>
<path d="M 50.00,33.50 Q 41.33,38.07 34.31,44.90 Q 35.97,54.56 40.30,63.35 Q 50.00,64.75 59.70,63.35 Q 64.03,54.56 65.69,44.90 Q 58.67,38.07 50.00,33.50 Z" fill="url(#red)"/>
<g fill="none" stroke="#26261F" stroke-width="1.7" stroke-linecap="round" opacity="0.92">
<path d="M 50.00,33.50 Q 41.33,38.07 34.31,44.90 M 34.31,44.90 Q 35.97,54.56 40.30,63.35 M 40.30,63.35 Q 50.00,64.75 59.70,63.35 M 59.70,63.35 Q 64.03,54.56 65.69,44.90 M 65.69,44.90 Q 58.67,38.07 50.00,33.50"/>
<path d="M 50.00,33.50 Q 52.20,25.60 50.00,17.70"/><path d="M 34.31,44.90 Q 27.47,40.37 19.28,40.02"/><path d="M 40.30,63.35 Q 33.88,68.45 31.01,76.13"/><path d="M 59.70,63.35 Q 62.56,71.03 68.99,76.13"/><path d="M 65.69,44.90 Q 73.89,44.55 80.72,40.02"/>
</g>
<circle cx="50" cy="50" r="47" fill="url(#shade)"/>
</g>
<circle cx="50" cy="50" r="46.4" fill="none" stroke="#1A1A1A" stroke-width="1.8"/>
</svg>